<?xml version="1.0" standalone="no"?>
<!DOCTYPE svg PUBLIC "-//W3C//DTD SVG 20010904//EN"
 "http://www.w3.org/TR/2001/REC-SVG-20010904/DTD/svg10.dtd">
<svg version="1.0" xmlns="http://www.w3.org/2000/svg"
 width="16.000000pt" height="16.000000pt" viewBox="0 0 16.000000 16.000000"
 preserveAspectRatio="xMidYMid meet">
<metadata>
Created by potrace 1.11, written by Peter Selinger 2001-2013
</metadata>
<g transform="translate(0.000000,16.000000) scale(0.006400,-0.006400)"
fill="#000000" stroke="none">
<path d="M1301 2423 c-46 -9 -191 -63 -239 -90 -26 -14 -72 -39 -102 -55 -30
-16 -59 -33 -64 -39 -6 -5 -29 -9 -51 -9 -98 0 -379 -128 -473 -214 -53 -51
-56 -55 -60 -112 -4 -61 6 -154 59 -542 17 -123 29 -224 27 -226 -90 -57 -123
-118 -122 -228 2 -89 20 -129 75 -166 18 -13 38 -33 42 -45 13 -36 39 -57 68
-57 18 0 30 -6 33 -17 11 -35 56 -266 56 -287 0 -17 17 -30 80 -61 44 -21 80
-44 80 -50 0 -5 -7 -53 -15 -105 -8 -52 -15 -101 -15 -107 0 -10 67 -13 300
-13 l300 0 4 23 c3 12 7 31 8 42 3 16 16 21 78 31 115 18 125 25 158 113 76
199 171 679 203 1023 12 133 8 479 -6 512 -8 18 -4 18 51 12 105 -13 236 -44
383 -90 162 -52 211 -58 211 -26 0 27 -46 55 -318 192 l-233 116 145 99 c80
54 145 104 146 111 0 7 -17 21 -37 30 -31 14 -73 17 -235 17 -109 0 -198 0
-198 1 0 1 32 22 70 48 39 25 70 50 70 56 0 39 -355 4 -477 -46 -19 -9 -36
-14 -38 -12 -1 2 39 37 91 78 51 41 93 81 93 88 1 12 -92 15 -148 5z"/>
</g>
</svg>
